<svg id="af2982c4-7a84-49fb-87b6-88ef065ef7ab" data-name="Слой 1" xmlns="http://www.w3.org/2000/svg" viewBox="0 0 69.6 98.37"><defs><style>.e1973458-87d1-4de4-98be-c3ff17b562cc{fill:#666;}</style></defs><title>arrow</title><path class="e1973458-87d1-4de4-98be-c3ff17b562cc" d="M84.8,5.78c-.22.73-.58,2.08-1,3.4Q79.16,23.4,74.51,37.62q-3.09,9.45-6.19,18.88Q64.63,67.8,61,79.1C59,85,57.12,90.89,55.16,96.76a6.2,6.2,0,0,1-1.24,2.12A3,3,0,0,1,49,98.51a23,23,0,0,1-1.85-4.24Q42.35,81.13,37.6,68L27.53,40.11q-4-11-7.94-21.92c-1.4-3.86-2.83-7.7-4.13-11.59a5.25,5.25,0,0,1-.12-2.86A2.85,2.85,0,0,1,19.44,2,23.13,23.13,0,0,1,22.73,4q13.61,9.72,27.19,19.48A2.36,2.36,0,0,0,53,23.46Q65.93,13.31,78.85,3.18a6.78,6.78,0,0,1,2.56-1.31C83.37,1.45,84.8,2.91,84.8,5.78Z" transform="translate(-15.2 -1.63)"/></svg>