<svg id="aff89613-636e-4a44-936c-1b87266e7bf9" data-name="Слой 1" xmlns="http://www.w3.org/2000/svg" viewBox="0 0 98.15 98.11"><defs><style>.b79021e7-39ec-4bd6-b26e-b35fc60ebed1{fill:#666;}.adc328e5-dcfe-4835-bbb5-34aee9b18a3c{fill:#099bcc;}</style></defs><title>pressure</title><path class="b79021e7-39ec-4bd6-b26e-b35fc60ebed1" d="M99.36,47v.24a16.68,16.68,0,0,0-.11,3.46A49,49,0,0,1,97,65.11a45.8,45.8,0,0,1-7.55,14.7A48.52,48.52,0,0,1,59.47,98.39c-2,.38-4,.65-5.95,1h-1a13.17,13.17,0,0,0-5.52,0h-.72c-.12-.29-.39-.22-.61-.24a41.46,41.46,0,0,1-5-.71A49.18,49.18,0,0,1,1.23,51.73C.94,39.47,4.46,28.44,12.38,19.09,23.82,5.57,38.61-.22,56.19,1.57A46.82,46.82,0,0,1,82,12.84a45.85,45.85,0,0,1,9.56,11,50.3,50.3,0,0,1,7,18.1A44.5,44.5,0,0,0,99.36,47ZM50.42,8.76a41.5,41.5,0,1,0,41.3,41.33C91.68,27.54,73.12,8.71,50.42,8.76Z" transform="translate(-1.21 -1.25)"/><path class="adc328e5-dcfe-4835-bbb5-34aee9b18a3c" d="M47,99.36a13.17,13.17,0,0,1,5.52,0Z" transform="translate(-1.21 -1.25)"/><path class="b79021e7-39ec-4bd6-b26e-b35fc60ebed1" d="M20.88,48.93c.09,8.75,2.64,15.18,7.42,20.76l1.85,2.2A.86.86,0,0,1,30,73.31c-1.51,1.25-3,2.54-4.5,3.78-.95.77-1.07-.37-1.52-.72-.6-.48-.62-1,0-1.48s1.53-.73,1.57-1.47-.84-1.2-1.31-1.79A33.41,33.41,0,0,1,17,55.17c-.14-1.1-.59-1.37-1.65-1.27-.65.06-1.67.68-1.93-.65-.3-1.54-.22-1.65,1.38-1.71s1.76-.16,1.78-1.82a34.82,34.82,0,0,1,5.2-17.45,31.92,31.92,0,0,1,2.82-3.85c.5-.6.42-.94-.14-1.35-.26-.19-.47-.45-.73-.62-.83-.56-.84-1.1-.13-1.82s1.08-.77,1.8-.12c1.46,1.33,1.49,1.29,3,.08a35,35,0,0,1,17.76-7.71c.86-.12,1.92.29,2.54-.31s.19-1.68.23-2.54c0-.57.18-.72.79-.7,2.1.08,1.86,0,1.8,2,0,1.09.27,1.43,1.39,1.49a32.91,32.91,0,0,1,16.2,5.67,27.09,27.09,0,0,1,3.57,2.81c.54.51,1,.77,1.53,0,.22-.32.65-.48.89-.79.58-.74,1-.42,1.59,0,.74.63,1,1.11.06,1.88-1.53,1.28-1.47,1.34-.23,3A33.27,33.27,0,0,1,83.36,45a35.31,35.31,0,0,1,.41,5.22c0,.83.23,1.31,1.16,1.2a5.9,5.9,0,0,1,.84,0c1.29.09,1.54.39,1.37,1.72-.13,1.08-.93.91-1.65.83-1.76-.21-1.81-.23-2.08,1.52a33.7,33.7,0,0,1-4.8,12.8,20.8,20.8,0,0,1-3.09,4.1c-.74.69-1,1.35.1,2a5.81,5.81,0,0,1,.56.45c.52.42,1.07.8.35,1.53s-1,1.47-2,.47a44.78,44.78,0,0,0-4-3.38c-.75-.55-.63-1-.15-1.54,1.44-1.76,3-3.45,4.23-5.36a28.16,28.16,0,0,0,4.9-14.43C80.1,37.9,71.34,25.63,57.93,22A28,28,0,0,0,35.84,24.8C26.07,30.47,21.34,39.13,20.88,48.93Z" transform="translate(-1.21 -1.25)"/><path class="b79021e7-39ec-4bd6-b26e-b35fc60ebed1" d="M67.49,33.83c-.33.42-.64.86-1,1.26-3.67,4-7.33,8-11,12A1.73,1.73,0,0,0,55,48.91a5,5,0,0,1-5.37,6.29,2.34,2.34,0,0,0-2.47,1c-.79,1-1.7,1.91-2.54,2.87-.5.56-.93.63-1.46,0a21.1,21.1,0,0,0-1.93-2c-.71-.65-.64-1.21.07-1.77.37-.3.78-.55,1.14-.87,1.49-1.29,3.17-2.31,2.9-4.85-.28-2.7,3.58-5.31,6.44-4.07a1.5,1.5,0,0,0,1.8-.38Q60,39.73,66.36,34.35a11.63,11.63,0,0,1,1-.69Z" transform="translate(-1.21 -1.25)"/></svg>