<svg id="fa4c09a2-73f8-40e7-aa43-6f936d1bf5f3" data-name="sun" xmlns="http://www.w3.org/2000/svg" viewBox="0 0 48 48"><defs><style>.e981aaf5-3e4f-4a26-abf1-239672b7dea6{fill:#f2b706;}.aed4aeb4-1c2b-467d-8a9e-14f06f2ae921{fill:#f3c805;}</style></defs><title>01d</title><ellipse class="e981aaf5-3e4f-4a26-abf1-239672b7dea6" cx="24.25" cy="23.98" rx="14.33" ry="14.37"/><path class="e981aaf5-3e4f-4a26-abf1-239672b7dea6" d="M49,20.05s0,.06,0,.1a1.51,1.51,0,0,1-1.11,1.16c-.79.23-1.58.45-2.38.66-.58.15-1.17.31-1.76.41A1.54,1.54,0,0,1,41.83,21a1.37,1.37,0,0,1,.78-1.5,6.76,6.76,0,0,1,1.17-.41c1-.32,2.06-.61,3.12-.83a1.66,1.66,0,0,1,1.64.42,1.6,1.6,0,0,1,.42.92s0,.08,0,.1Z" transform="translate(-1 -1)"/><path class="e981aaf5-3e4f-4a26-abf1-239672b7dea6" d="M19.72,1a3.38,3.38,0,0,1,.47.22,1.61,1.61,0,0,1,.56.8c.36,1,.64,2.1.92,3.16.06.24.12.49.2.73a1.73,1.73,0,0,1-.24,1.53,1.54,1.54,0,0,1-1.58.71,1.41,1.41,0,0,1-1.16-1A29.81,29.81,0,0,1,17.75,2.8a1.37,1.37,0,0,1,.68-1.48A4.22,4.22,0,0,1,19.19,1Z" transform="translate(-1 -1)"/><path class="e981aaf5-3e4f-4a26-abf1-239672b7dea6" d="M43.2,29.19a11.6,11.6,0,0,1,1.88.35c.87.22,1.72.5,2.57.79a1.5,1.5,0,0,1,1.07,1.19,1.71,1.71,0,0,1-.94,1.83,1.38,1.38,0,0,1-.78,0,19.25,19.25,0,0,1-4.4-1.26,2.82,2.82,0,0,1-.48-.27,1.3,1.3,0,0,1-.51-1.08A1.82,1.82,0,0,1,42,29.74,1.35,1.35,0,0,1,43.2,29.19Z" transform="translate(-1 -1)"/><path class="e981aaf5-3e4f-4a26-abf1-239672b7dea6" d="M31.21,1.43A1.66,1.66,0,0,1,33,2.91a.69.69,0,0,1,0,.35c-.4,1.39-.77,2.8-1.24,4.18a1.45,1.45,0,0,1-.78,1,1.72,1.72,0,0,1-2.2-1,2.54,2.54,0,0,1,0-1.1,23.4,23.4,0,0,1,1.08-3.76,1.8,1.8,0,0,0,.08-.21A1.3,1.3,0,0,1,31.21,1.43Z" transform="translate(-1 -1)"/><path class="e981aaf5-3e4f-4a26-abf1-239672b7dea6" d="M43.19,9.26a1.28,1.28,0,0,1-.29.82,16.24,16.24,0,0,1-2.66,2.71l-.49.41a1.32,1.32,0,0,1-1.84,0,2,2,0,0,1-.58-.72,1.14,1.14,0,0,1,.18-1.36c.51-.57,1.06-1.12,1.61-1.66s1-.92,1.45-1.4a1.34,1.34,0,0,1,.88-.39A1.6,1.6,0,0,1,43.19,9.26Z" transform="translate(-1 -1)"/><path class="e981aaf5-3e4f-4a26-abf1-239672b7dea6" d="M19.1,48.9s.06,0,.1,0a1.53,1.53,0,0,0,1.19-1.07c.25-.79.49-1.58.73-2.37.17-.58.34-1.16.46-1.76a1.54,1.54,0,0,0-1.33-1.92,1.34,1.34,0,0,0-1.51.74,6,6,0,0,0-.45,1.15c-.35,1-.67,2-.93,3.1a1.7,1.7,0,0,0,.38,1.67,1.64,1.64,0,0,0,.9.45s.08,0,.09,0Z" transform="translate(-1 -1)"/><path class="e981aaf5-3e4f-4a26-abf1-239672b7dea6" d="M1,19a2.91,2.91,0,0,0,.21.48A1.57,1.57,0,0,0,2,20c1,.4,2.07.71,3.11,1,.25.08.49.14.73.23a1.69,1.69,0,0,0,1.53-.2,1.51,1.51,0,0,0,.75-1.56,1.38,1.38,0,0,0-1-1.19,29.22,29.22,0,0,0-4.28-1.28,1.37,1.37,0,0,0-1.5.64,4.21,4.21,0,0,0-.34.75Z" transform="translate(-1 -1)"/><path class="e981aaf5-3e4f-4a26-abf1-239672b7dea6" d="M28.39,43.37a10.61,10.61,0,0,0,.29,1.89c.19.88.44,1.74.71,2.6A1.5,1.5,0,0,0,30.54,49a1.73,1.73,0,0,0,1.86-.89,1.47,1.47,0,0,0,.07-.78,19,19,0,0,0-1.13-4.45,2.19,2.19,0,0,0-.25-.48A1.28,1.28,0,0,0,30,41.82a1.91,1.91,0,0,0-1.06.32A1.39,1.39,0,0,0,28.39,43.37Z" transform="translate(-1 -1)"/><path class="e981aaf5-3e4f-4a26-abf1-239672b7dea6" d="M1.07,30.5A1.68,1.68,0,0,0,2.5,32.3a.83.83,0,0,0,.35,0c1.4-.36,2.81-.69,4.2-1.11a1.47,1.47,0,0,0,1-.76,1.74,1.74,0,0,0-.92-2.24,2.67,2.67,0,0,0-1.09,0,21.43,21.43,0,0,0-3.78,1L2,29.24A1.31,1.31,0,0,0,1.07,30.5Z" transform="translate(-1 -1)"/><path class="e981aaf5-3e4f-4a26-abf1-239672b7dea6" d="M13.27,11.36a1.19,1.19,0,0,0-.2-.7A14.23,14.23,0,0,0,9.39,6.84a1,1,0,0,0-1.17,0,2.64,2.64,0,0,0-.81.75,1.11,1.11,0,0,0,0,1.38,45.7,45.7,0,0,0,3.26,3.55,1.55,1.55,0,0,0,2.56-1.12Z" transform="translate(-1 -1)"/><path class="e981aaf5-3e4f-4a26-abf1-239672b7dea6" d="M8.52,42.74a1.25,1.25,0,0,0,.83-.26,17.43,17.43,0,0,0,2.78-2.58l.42-.49a1.32,1.32,0,0,0,.06-1.84,2.13,2.13,0,0,0-.7-.6,1.12,1.12,0,0,0-1.36.14c-.59.5-1.15,1-1.71,1.56s-.94,1-1.43,1.41A1.27,1.27,0,0,0,7,41,1.59,1.59,0,0,0,8.52,42.74Z" transform="translate(-1 -1)"/><path class="e981aaf5-3e4f-4a26-abf1-239672b7dea6" d="M41.14,42.91a1.57,1.57,0,0,0,1.79-1.6,1.48,1.48,0,0,0-.47-1c-1-1-1.93-2-2.94-3A1.12,1.12,0,0,0,38.37,37a1.8,1.8,0,0,0-1.2,1,1.22,1.22,0,0,0,.09,1.22,13.3,13.3,0,0,0,3.28,3.45A.83.83,0,0,0,41.14,42.91Z" transform="translate(-1 -1)"/><path class="aed4aeb4-1c2b-467d-8a9e-14f06f2ae921" d="M38.6,19.71a14.38,14.38,0,0,1-8,18.66,14.13,14.13,0,0,1-18.53-7.84c-1.08-2.72,8.66-1,13.75-4.87C28.79,23.4,37.72,17.49,38.6,19.71Z" transform="translate(-1 -1)"/></svg>