<svg id="ae4cf075-d17c-4b39-8157-b43a5b3d74c3" data-name="cloud" xmlns="http://www.w3.org/2000/svg" viewBox="0 0 35.42 22.87"><defs><style>.fafab3f9-603f-4800-a303-7ee859f1c30e{fill:#34cdf7;}.bda2bac5-bd1b-44e7-8cbc-f1503d6eccf5{fill:#9fedff;}.a421e862-c6ce-4b2c-8e4a-bc396b147ded{fill:#c8f2fc;}</style></defs><title>03n</title><path class="fafab3f9-603f-4800-a303-7ee859f1c30e" d="M42.52,30.58a7.26,7.26,0,0,1-.37,2.21,7.79,7.79,0,0,1-3.25,4,8.71,8.71,0,0,1-3.65,1.33,8,8,0,0,1-1,.06H31.94c-1.73,0-3.46,0-5.2,0H17.59c-1.22,0-2.44,0-3.65,0A6.26,6.26,0,0,1,10.26,37a7.56,7.56,0,0,1-3-4.79,7.42,7.42,0,0,1,.62-4.75,6.53,6.53,0,0,1,2.56-2.75,9,9,0,0,1,2.16-.95,1.57,1.57,0,0,0,1.13-1.11,10.38,10.38,0,0,1,1.81-3.33,10.22,10.22,0,0,1,3.29-2.66,10.87,10.87,0,0,1,3.56-1.12,11.87,11.87,0,0,1,3.26,0,11.25,11.25,0,0,1,2.93.88l.59.23a.26.26,0,0,0,.1.07,12.35,12.35,0,0,1,4.21,4.23,1.16,1.16,0,0,0,.16.21.39.39,0,0,0,.47.11.59.59,0,0,1,.37,0l.19,0c.43,0,.85,0,1.28.08a7,7,0,0,1,2.6.81,8,8,0,0,1,3.31,3.78,9.59,9.59,0,0,1,.57,2M31.29,21.46a0,0,0,0,0,0,0,10.57,10.57,0,0,0-1.64-1.83,8.35,8.35,0,0,0-2-1.35,8.26,8.26,0,0,0-3-.73,8.52,8.52,0,0,0-1.13,0,10.41,10.41,0,0,0-1.38.18,8.79,8.79,0,0,0-2.84,1A7.39,7.39,0,0,0,16.82,21a8.79,8.79,0,0,0-1.13,2.35,11.13,11.13,0,0,1-.39,1.28,1.41,1.41,0,0,1-1.25.92,2.58,2.58,0,0,0-.4,0,8,8,0,0,0-2.17.91A4.61,4.61,0,0,0,9.8,28.26a5.59,5.59,0,0,0-.54,2.24,6.21,6.21,0,0,0,0,1.14A4.91,4.91,0,0,0,11,34.79a2.06,2.06,0,0,0,.41.32l0,.06a4.55,4.55,0,0,0,1,.59,3.72,3.72,0,0,0,1.34.33c.6,0,1.2,0,1.8,0,1.46,0,2.92,0,4.38,0,3.41,0,6.82,0,10.22,0,.6,0,1.19,0,1.79,0l2,0A9.89,9.89,0,0,0,35.31,36,6.23,6.23,0,0,0,37,35.5a5.62,5.62,0,0,0,2.12-1.65,7,7,0,0,0,1-1.93,6.2,6.2,0,0,0,.37-2,5,5,0,0,0,0-.67,8.41,8.41,0,0,0-.17-1.12,8.64,8.64,0,0,0-.81-2.08,5.32,5.32,0,0,0-1.36-1.55,5.47,5.47,0,0,0-1.36-.8,4.78,4.78,0,0,0-1.52-.38,5,5,0,0,0-1.33.12,8.46,8.46,0,0,0-1.37.38,9.34,9.34,0,0,0-2,1.08,5.39,5.39,0,0,1-.84.57.58.58,0,0,1-.67-.1c-.12-.13-.25-.25-.36-.39a6.61,6.61,0,0,1-.47-.58.35.35,0,0,1,0-.44.67.67,0,0,1,.15-.14c.26-.19.52-.38.79-.56a10,10,0,0,1,1.35-.87c.23-.12.48-.2.71-.33a.29.29,0,0,0,.14-.41A.49.49,0,0,0,31.29,21.46Z" transform="translate(-7.1 -15.39)"/><path class="bda2bac5-bd1b-44e7-8cbc-f1503d6eccf5" d="M31.29,21.46a.49.49,0,0,1,.13.2.29.29,0,0,1-.14.41c-.23.13-.48.21-.71.33a10,10,0,0,0-1.35.87c-.27.18-.53.37-.79.56a.67.67,0,0,0-.15.14.35.35,0,0,0,0,.44,6.61,6.61,0,0,0,.47.58c.11.14.24.26.36.39a.58.58,0,0,0,.67.1,5.39,5.39,0,0,0,.84-.57,9.34,9.34,0,0,1,2-1.08A8.46,8.46,0,0,1,34,23.45a5,5,0,0,1,1.33-.12,4.78,4.78,0,0,1,1.52.38,5.47,5.47,0,0,1,1.36.8,5.32,5.32,0,0,1,1.36,1.55,8.64,8.64,0,0,1,.81,2.08,8.41,8.41,0,0,1,.17,1.12,5,5,0,0,1,0,.67,6.2,6.2,0,0,1-.37,2,7,7,0,0,1-1,1.93A5.62,5.62,0,0,1,37,35.5a6.23,6.23,0,0,1-1.68.49,9.89,9.89,0,0,1-1.33.08l-2,0c-.6,0-1.19,0-1.79,0-3.4.05-6.81,0-10.22,0-1.46,0-2.92,0-4.38,0-.6,0-1.2,0-1.8,0a3.72,3.72,0,0,1-1.34-.33,4.55,4.55,0,0,1-1-.59l0-.06a5.7,5.7,0,0,0,1,0c.49-.08,1-.21,1.46-.32s1.07-.25,1.6-.41a16.24,16.24,0,0,0,2.23-.85,13.11,13.11,0,0,0,2.23-1.3A11.79,11.79,0,0,0,21.32,31c.25-.24.49-.49.73-.74s.55-.62.82-.94c.41-.51.81-1,1.2-1.57l1.6-2.22a13.26,13.26,0,0,1,1.12-1.36,11.26,11.26,0,0,1,.88-.81,7.43,7.43,0,0,1,1.2-.81,6.92,6.92,0,0,1,2.06-.72C31.17,21.81,31.31,21.67,31.29,21.46Z" transform="translate(-7.1 -15.39)"/><path class="a421e862-c6ce-4b2c-8e4a-bc396b147ded" d="M31.29,21.46c0,.21-.12.35-.36.4a6.92,6.92,0,0,0-2.06.72,7.43,7.43,0,0,0-1.2.81,11.26,11.26,0,0,0-.88.81,13.26,13.26,0,0,0-1.12,1.36l-1.6,2.22c-.39.54-.79,1.06-1.2,1.57-.27.32-.54.63-.82.94s-.48.5-.73.74a11.79,11.79,0,0,1-1.39,1.15,13.11,13.11,0,0,1-2.23,1.3,16.24,16.24,0,0,1-2.23.85c-.53.16-1.06.3-1.6.41s-1,.24-1.46.32a5.7,5.7,0,0,1-1,0,2.06,2.06,0,0,1-.41-.32A4.91,4.91,0,0,1,9.3,31.64a6.21,6.21,0,0,1,0-1.14,5.59,5.59,0,0,1,.54-2.24,4.61,4.61,0,0,1,1.68-1.77,8,8,0,0,1,2.17-.91,2.58,2.58,0,0,1,.4,0,1.41,1.41,0,0,0,1.25-.92,11.13,11.13,0,0,0,.39-1.28A8.79,8.79,0,0,1,16.82,21a7.39,7.39,0,0,1,2.44-2.25,8.79,8.79,0,0,1,2.84-1,10.41,10.41,0,0,1,1.38-.18,8.52,8.52,0,0,1,1.13,0,8.26,8.26,0,0,1,3,.73,8.35,8.35,0,0,1,2,1.35,10.57,10.57,0,0,1,1.64,1.83A0,0,0,0,1,31.29,21.46Z" transform="translate(-7.1 -15.39)"/></svg>