<svg xmlns="http://www.w3.org/2000/svg" viewBox="0 0 38.64 36.68"><defs><style>.b17f66c0-027f-4082-a2c4-070f737a76d1{fill:#f2b706;}.f371be0c-89dd-42e6-bd50-9a6b5292d187{fill:#f3c805;}.fbb8c830-01f3-4872-b843-d2f7ba11e0c2{fill:none;stroke:#34cdf7;stroke-linecap:round;stroke-miterlimit:10;}.e5618b3d-3030-4ac4-b9ab-bd34c88980ca{fill:#34cdf7;}.f1357006-eae8-4d54-a8fc-eee96e4efdc9{fill:#9fedff;}.b085a0d2-0029-4b62-a1b5-569f84d9aaa6{fill:#c8f2fc;}</style></defs><title>10d</title><g id="a0feaeee-5a34-4a1a-8e88-345db24f2c45" data-name="sun"><ellipse class="b17f66c0-027f-4082-a2c4-070f737a76d1" cx="33.98" cy="20.83" rx="5.77" ry="5.78" transform="translate(-7.16 -7.21) rotate(-6.42)"/><path class="b17f66c0-027f-4082-a2c4-070f737a76d1" d="M43.26,17.79s0,0,0,0a.61.61,0,0,1-.39.52l-.92.37a5.63,5.63,0,0,1-.69.24.62.62,0,0,1-.81-.47.54.54,0,0,1,.25-.63,2.26,2.26,0,0,1,.44-.22,11.19,11.19,0,0,1,1.21-.47.63.63,0,0,1,.89.44s0,0,0,0Z" transform="translate(-5.05 -11.14)"/><path class="b17f66c0-027f-4082-a2c4-070f737a76d1" d="M30.69,11.49a.73.73,0,0,1,.19.07.66.66,0,0,1,.26.29c.19.4.35.81.51,1.22,0,.1.07.19.12.29a.71.71,0,0,1,0,.62.62.62,0,0,1-.6.35.55.55,0,0,1-.51-.35A12.68,12.68,0,0,1,30,12.3a.54.54,0,0,1,.2-.62,1.69,1.69,0,0,1,.29-.17Z" transform="translate(-5.05 -11.14)"/><path class="b17f66c0-027f-4082-a2c4-070f737a76d1" d="M41.35,21.71a5.32,5.32,0,0,1,.77.05c.35,0,.71.13,1.06.21a.59.59,0,0,1,.48.42.69.69,0,0,1-.29.78.66.66,0,0,1-.31.06,8,8,0,0,1-1.82-.31,1.21,1.21,0,0,1-.2-.09.49.49,0,0,1-.25-.41.65.65,0,0,1,.09-.43A.53.53,0,0,1,41.35,21.71Z" transform="translate(-5.05 -11.14)"/><path class="b17f66c0-027f-4082-a2c4-070f737a76d1" d="M35.3,11.14a.68.68,0,0,1,.77.52.32.32,0,0,1,0,.14c-.1.57-.18,1.15-.31,1.72a.59.59,0,0,1-.27.43.69.69,0,0,1-.92-.3.93.93,0,0,1,0-.44,9,9,0,0,1,.27-1.55.29.29,0,0,1,0-.09A.52.52,0,0,1,35.3,11.14Z" transform="translate(-5.05 -11.14)"/><path class="b17f66c0-027f-4082-a2c4-070f737a76d1" d="M40.45,13.74a.52.52,0,0,1-.08.34,7.32,7.32,0,0,1-.94,1.2l-.18.19a.53.53,0,0,1-.74.08.81.81,0,0,1-.26-.26.45.45,0,0,1,0-.55c.18-.26.37-.5.57-.74s.35-.41.51-.62a.52.52,0,0,1,.34-.2A.64.64,0,0,1,40.45,13.74Z" transform="translate(-5.05 -11.14)"/><path class="b17f66c0-027f-4082-a2c4-070f737a76d1" d="M32.59,30.68a0,0,0,0,1,0,0,.6.6,0,0,0,.43-.48l.18-1c0-.24.09-.48.11-.73a.63.63,0,0,0-.62-.71.55.55,0,0,0-.57.37,2.62,2.62,0,0,0-.13.48c-.09.42-.18.85-.23,1.28a.69.69,0,0,0,.22.65.66.66,0,0,0,.38.14s0,0,.05,0Z" transform="translate(-5.05 -11.14)"/><path class="b17f66c0-027f-4082-a2c4-070f737a76d1" d="M24,19.52a1.08,1.08,0,0,0,.11.18.6.6,0,0,0,.34.2c.42.11.86.19,1.29.27.1,0,.2,0,.3.06a.68.68,0,0,0,.6-.15.6.6,0,0,0,.23-.66.54.54,0,0,0-.44-.43,10.6,10.6,0,0,0-1.77-.32.54.54,0,0,0-.57.32,1.7,1.7,0,0,0-.1.32Z" transform="translate(-5.05 -11.14)"/><path class="b17f66c0-027f-4082-a2c4-070f737a76d1" d="M36.06,28.05a4.55,4.55,0,0,0,.2.74c.12.35.26.68.4,1a.6.6,0,0,0,.51.39.68.68,0,0,0,.7-.43.58.58,0,0,0,0-.32,7.69,7.69,0,0,0-.65-1.73.81.81,0,0,0-.12-.18.53.53,0,0,0-.45-.17.69.69,0,0,0-.41.17A.56.56,0,0,0,36.06,28.05Z" transform="translate(-5.05 -11.14)"/><path class="b17f66c0-027f-4082-a2c4-070f737a76d1" d="M24.55,24.13a.68.68,0,0,0,.65.66.32.32,0,0,0,.14,0c.55-.21,1.1-.4,1.63-.63a.64.64,0,0,0,.37-.35.71.71,0,0,0-.47-.86,1.3,1.3,0,0,0-.44.05,9.67,9.67,0,0,0-1.47.56l-.08,0A.53.53,0,0,0,24.55,24.13Z" transform="translate(-5.05 -11.14)"/><path class="b17f66c0-027f-4082-a2c4-070f737a76d1" d="M28.57,15.93a.46.46,0,0,0-.11-.28,5.69,5.69,0,0,0-1.65-1.36.39.39,0,0,0-.47,0,1.32,1.32,0,0,0-.29.33.45.45,0,0,0,.08.55,18,18,0,0,0,1.47,1.28.6.6,0,0,0,.89-.2A.64.64,0,0,0,28.57,15.93Z" transform="translate(-5.05 -11.14)"/><path class="b17f66c0-027f-4082-a2c4-070f737a76d1" d="M28.08,28.69a.47.47,0,0,0,.32-.14,7,7,0,0,0,1-1.16l.15-.21a.53.53,0,0,0-.07-.74.81.81,0,0,0-.3-.21.46.46,0,0,0-.54.12c-.21.22-.42.46-.61.7l-.51.63a.51.51,0,0,0-.13.37A.63.63,0,0,0,28.08,28.69Z" transform="translate(-5.05 -11.14)"/><path class="b17f66c0-027f-4082-a2c4-070f737a76d1" d="M41.14,27.29a.62.62,0,0,0,.64-.72.57.57,0,0,0-.23-.39c-.43-.36-.86-.72-1.31-1.06a.45.45,0,0,0-.47-.06.72.72,0,0,0-.44.46.52.52,0,0,0,.09.48,5.45,5.45,0,0,0,1.47,1.23A.35.35,0,0,0,41.14,27.29Z" transform="translate(-5.05 -11.14)"/><path class="f371be0c-89dd-42e6-bd50-9a6b5292d187" d="M39.08,18.12A5.8,5.8,0,0,1,36.71,26,5.68,5.68,0,0,1,29,23.65c-.56-1,3.42-.8,5.28-2.57C35.32,20,38.63,17.28,39.08,18.12Z" transform="translate(-5.05 -11.14)"/></g><g id="fde3f99b-79fa-44c3-8156-8e63998cc8df" data-name="Слой 5"><path class="fbb8c830-01f3-4872-b843-d2f7ba11e0c2" d="M17.24,39.8l-.55,1.06-.51,1" transform="translate(-5.05 -11.14)"/><path class="fbb8c830-01f3-4872-b843-d2f7ba11e0c2" d="M15.37,43.39l-1.06,2-1,1.9" transform="translate(-5.05 -11.14)"/><path class="fbb8c830-01f3-4872-b843-d2f7ba11e0c2" d="M20.37,39.76l-1.06,2-1,1.9" transform="translate(-5.05 -11.14)"/><path class="fbb8c830-01f3-4872-b843-d2f7ba11e0c2" d="M17.47,45.26l-.55,1.07-.52,1" transform="translate(-5.05 -11.14)"/><path class="fbb8c830-01f3-4872-b843-d2f7ba11e0c2" d="M23.24,39.8l-.55,1.06-.51,1" transform="translate(-5.05 -11.14)"/><path class="fbb8c830-01f3-4872-b843-d2f7ba11e0c2" d="M21.37,43.39l-1.06,2-1,1.9" transform="translate(-5.05 -11.14)"/><path class="fbb8c830-01f3-4872-b843-d2f7ba11e0c2" d="M26.37,39.76l-1.06,2-1,1.9" transform="translate(-5.05 -11.14)"/><path class="fbb8c830-01f3-4872-b843-d2f7ba11e0c2" d="M23.47,45.26l-.55,1.07-.52,1" transform="translate(-5.05 -11.14)"/><path class="fbb8c830-01f3-4872-b843-d2f7ba11e0c2" d="M29.24,39.8l-.55,1.06-.51,1" transform="translate(-5.05 -11.14)"/><path class="fbb8c830-01f3-4872-b843-d2f7ba11e0c2" d="M27.37,43.39l-1.06,2-1,1.9" transform="translate(-5.05 -11.14)"/></g><g id="b012a255-feb1-4fd2-89a9-e4676e11bc89" data-name="cloud"><path class="e5618b3d-3030-4ac4-b9ab-bd34c88980ca" d="M40.46,30.09a6.66,6.66,0,0,1-.37,2.21,7.77,7.77,0,0,1-3.24,4,8.75,8.75,0,0,1-3.66,1.33,7.89,7.89,0,0,1-1,.06c-.78,0-1.56,0-2.33,0-1.74,0-3.47,0-5.2,0-1.38,0-2.75,0-4.13,0h-5c-1.22,0-2.44,0-3.66,0a6.21,6.21,0,0,1-3.67-1.26,7.57,7.57,0,0,1-3-4.79,7.42,7.42,0,0,1,.63-4.75,6.45,6.45,0,0,1,2.55-2.75,8.94,8.94,0,0,1,2.17-1,1.58,1.58,0,0,0,1.13-1.11,10.21,10.21,0,0,1,5.09-6A10.87,10.87,0,0,1,20.32,15a11.86,11.86,0,0,1,3.26,0,11,11,0,0,1,2.93.88l.59.23.1.07a12.38,12.38,0,0,1,4.22,4.23.8.8,0,0,0,.15.21.39.39,0,0,0,.47.11.6.6,0,0,1,.37,0l.2,0c.42,0,.85,0,1.27.08a7,7,0,0,1,2.6.81,8,8,0,0,1,3.31,3.78,9,9,0,0,1,.57,2.05M29.24,21s0,0,0,0a10.52,10.52,0,0,0-1.63-1.83,8.41,8.41,0,0,0-2-1.35,8.21,8.21,0,0,0-3-.73,8.54,8.54,0,0,0-1.13,0,10.86,10.86,0,0,0-1.38.18,8.66,8.66,0,0,0-2.83,1,7.3,7.3,0,0,0-2.44,2.25,8.5,8.5,0,0,0-1.13,2.35c-.14.43-.22.87-.39,1.28a1.42,1.42,0,0,1-1.26.92,2.71,2.71,0,0,0-.4,0A8.26,8.26,0,0,0,9.42,26a4.51,4.51,0,0,0-1.67,1.77A5.28,5.28,0,0,0,7.21,30a5.44,5.44,0,0,0,0,1.14,5,5,0,0,0,.45,1.52A4.87,4.87,0,0,0,8.94,34.3a1.81,1.81,0,0,0,.41.32l.05.06a4.12,4.12,0,0,0,1,.59,3.62,3.62,0,0,0,1.33.33c.6,0,1.21,0,1.81,0,1.46,0,2.92,0,4.37,0,3.41,0,6.82,0,10.23,0,.59,0,1.19,0,1.78,0l2,0a9.79,9.79,0,0,0,1.33-.08A6.23,6.23,0,0,0,34.93,35a5.62,5.62,0,0,0,2.12-1.65,6.59,6.59,0,0,0,1.05-1.93,6.5,6.5,0,0,0,.38-2c0-.22,0-.45,0-.67a7,7,0,0,0-.17-1.12,8.24,8.24,0,0,0-.81-2.08A5.14,5.14,0,0,0,36.13,24a5.65,5.65,0,0,0-1.36-.8,4.78,4.78,0,0,0-1.53-.38,4.85,4.85,0,0,0-1.32.12,7.93,7.93,0,0,0-1.37.38,8.54,8.54,0,0,0-2,1.09,6.93,6.93,0,0,1-.85.56.56.56,0,0,1-.66-.1,4.51,4.51,0,0,1-.37-.39,6.51,6.51,0,0,1-.46-.58.33.33,0,0,1,0-.44.67.67,0,0,1,.15-.14l.79-.56a10.69,10.69,0,0,1,1.35-.87c.23-.12.48-.2.72-.33a.29.29,0,0,0,.14-.41A.86.86,0,0,0,29.24,21Z" transform="translate(-5.05 -11.14)"/><path class="f1357006-eae8-4d54-a8fc-eee96e4efdc9" d="M29.24,21a.86.86,0,0,1,.13.2.29.29,0,0,1-.14.41c-.24.13-.49.21-.72.33a10.69,10.69,0,0,0-1.35.87l-.79.56a.67.67,0,0,0-.15.14.33.33,0,0,0,0,.44,6.51,6.51,0,0,0,.46.58,4.51,4.51,0,0,0,.37.39.56.56,0,0,0,.66.1,6.93,6.93,0,0,0,.85-.56,8.54,8.54,0,0,1,2-1.09A7.93,7.93,0,0,1,31.92,23a4.85,4.85,0,0,1,1.32-.12,4.78,4.78,0,0,1,1.53.38,5.65,5.65,0,0,1,1.36.8,5.14,5.14,0,0,1,1.35,1.55,8.24,8.24,0,0,1,.81,2.08,7,7,0,0,1,.17,1.12c0,.22,0,.45,0,.67a6.5,6.5,0,0,1-.38,2,6.59,6.59,0,0,1-1.05,1.93A5.62,5.62,0,0,1,34.93,35a6.23,6.23,0,0,1-1.68.49,9.79,9.79,0,0,1-1.33.08l-2,0c-.59,0-1.19,0-1.78,0-3.41,0-6.82,0-10.23,0-1.45,0-2.91,0-4.37,0-.6,0-1.21,0-1.81,0a3.62,3.62,0,0,1-1.33-.33,4.12,4.12,0,0,1-1-.59l-.05-.06a5.59,5.59,0,0,0,1,0c.49-.08,1-.21,1.47-.32s1.07-.25,1.6-.41A16.12,16.12,0,0,0,15.64,33a13.11,13.11,0,0,0,2.23-1.3,12.76,12.76,0,0,0,1.4-1.15c.24-.24.49-.49.72-.74s.56-.62.82-.94c.41-.51.82-1,1.2-1.57l1.61-2.22a12.07,12.07,0,0,1,1.11-1.35,9.71,9.71,0,0,1,.88-.82,7.89,7.89,0,0,1,1.2-.81,6.88,6.88,0,0,1,2.07-.72A.39.39,0,0,0,29.24,21Z" transform="translate(-5.05 -11.14)"/><path class="b085a0d2-0029-4b62-a1b5-569f84d9aaa6" d="M29.24,21a.39.39,0,0,1-.36.4,6.88,6.88,0,0,0-2.07.72,7.89,7.89,0,0,0-1.2.81,9.71,9.71,0,0,0-.88.82,12.07,12.07,0,0,0-1.11,1.35L22,27.29c-.38.54-.79,1.06-1.2,1.57-.26.32-.54.63-.82.94s-.48.5-.72.74a12.76,12.76,0,0,1-1.4,1.15A13.11,13.11,0,0,1,15.64,33a16.12,16.12,0,0,1-2.22.85c-.53.16-1.06.3-1.6.41s-1,.24-1.47.32a5.59,5.59,0,0,1-1,0,1.81,1.81,0,0,1-.41-.32,4.87,4.87,0,0,1-1.25-1.63,5,5,0,0,1-.45-1.52,5.44,5.44,0,0,1,0-1.14,5.28,5.28,0,0,1,.54-2.24A4.51,4.51,0,0,1,9.42,26a8.26,8.26,0,0,1,2.17-.91,2.71,2.71,0,0,1,.4,0,1.42,1.42,0,0,0,1.26-.92c.17-.41.25-.85.39-1.28a8.5,8.5,0,0,1,1.13-2.35,7.3,7.3,0,0,1,2.44-2.25,8.66,8.66,0,0,1,2.83-1,10.86,10.86,0,0,1,1.38-.18,8.54,8.54,0,0,1,1.13,0,8.21,8.21,0,0,1,3,.73,8.41,8.41,0,0,1,2,1.35A10.52,10.52,0,0,1,29.22,21S29.23,21,29.24,21Z" transform="translate(-5.05 -11.14)"/></g></svg>