<svg xmlns="http://www.w3.org/2000/svg" viewBox="0 0 39.01 37.06"><defs><style>.e5914091-481e-41d9-abef-7d8ac00121e9{fill:#fdfdfd;stroke-width:2px;}.b2315ef4-afb4-4658-9120-060b59220784,.e5914091-481e-41d9-abef-7d8ac00121e9{stroke:#b3b3b3;}.b2315ef4-afb4-4658-9120-060b59220784,.e5914091-481e-41d9-abef-7d8ac00121e9,.ef3eb16e-8768-415f-b32b-6b1e05dfab16{stroke-miterlimit:10;}.b2315ef4-afb4-4658-9120-060b59220784,.f1e4e19c-9c29-4c6c-99e9-c8b18dca6a2d{fill:#e6eeff;}.ef3eb16e-8768-415f-b32b-6b1e05dfab16{fill:none;stroke:#34cdf7;stroke-linecap:round;}.e9cfb32e-ca62-4468-962d-35e07e7648c7{fill:#34cdf7;}.a7763f3a-f166-4480-a264-12b320c4e494{fill:#9fedff;}.b986a3f2-4f5b-4e04-8f8d-89fba4cd82c8{fill:#c8f2fc;}</style></defs><title>10n</title><g id="bb06ef88-f3e3-49ca-8302-eee6ff4fa29c" data-name="moon"><circle class="e5914091-481e-41d9-abef-7d8ac00121e9" cx="28.93" cy="10.08" r="9.08"/><path class="f1e4e19c-9c29-4c6c-99e9-c8b18dca6a2d" d="M37.19,13.42a8.4,8.4,0,1,1-6.72,15.4c-2.13-.93,6,1.48,8.73-5.06C42.23,16.65,35.06,12.49,37.19,13.42Z" transform="translate(-5.05 -10.76)"/><circle class="b2315ef4-afb4-4658-9120-060b59220784" cx="31.8" cy="10.98" r="2.08"/><circle class="b2315ef4-afb4-4658-9120-060b59220784" cx="28.13" cy="5.99" r="1.36"/><circle class="b2315ef4-afb4-4658-9120-060b59220784" cx="24.03" cy="11.74" r="1.04"/></g><g id="a60e9599-0f21-457f-98ad-c0ae400b5c7f" data-name="Слой 5"><path class="ef3eb16e-8768-415f-b32b-6b1e05dfab16" d="M17.24,39.8l-.55,1.06-.51,1" transform="translate(-5.05 -10.76)"/><path class="ef3eb16e-8768-415f-b32b-6b1e05dfab16" d="M15.37,43.39l-1.06,2-1,1.9" transform="translate(-5.05 -10.76)"/><path class="ef3eb16e-8768-415f-b32b-6b1e05dfab16" d="M20.37,39.76l-1.06,2-1,1.9" transform="translate(-5.05 -10.76)"/><path class="ef3eb16e-8768-415f-b32b-6b1e05dfab16" d="M17.47,45.26l-.55,1.07-.52,1" transform="translate(-5.05 -10.76)"/><path class="ef3eb16e-8768-415f-b32b-6b1e05dfab16" d="M23.24,39.8l-.55,1.06-.51,1" transform="translate(-5.05 -10.76)"/><path class="ef3eb16e-8768-415f-b32b-6b1e05dfab16" d="M21.37,43.39l-1.06,2-1,1.9" transform="translate(-5.05 -10.76)"/><path class="ef3eb16e-8768-415f-b32b-6b1e05dfab16" d="M26.37,39.76l-1.06,2-1,1.9" transform="translate(-5.05 -10.76)"/><path class="ef3eb16e-8768-415f-b32b-6b1e05dfab16" d="M23.47,45.26l-.55,1.07-.52,1" transform="translate(-5.05 -10.76)"/><path class="ef3eb16e-8768-415f-b32b-6b1e05dfab16" d="M29.24,39.8l-.55,1.06-.51,1" transform="translate(-5.05 -10.76)"/><path class="ef3eb16e-8768-415f-b32b-6b1e05dfab16" d="M27.37,43.39l-1.06,2-1,1.9" transform="translate(-5.05 -10.76)"/></g><g id="f3787234-ab6e-4a3f-b857-d3ba940d0e17" data-name="cloud"><path class="e9cfb32e-ca62-4468-962d-35e07e7648c7" d="M40.46,30.09a6.66,6.66,0,0,1-.37,2.21,7.77,7.77,0,0,1-3.24,4,8.75,8.75,0,0,1-3.66,1.33,7.89,7.89,0,0,1-1,.06c-.78,0-1.56,0-2.33,0-1.74,0-3.47,0-5.2,0-1.38,0-2.75,0-4.13,0h-5c-1.22,0-2.44,0-3.66,0a6.21,6.21,0,0,1-3.67-1.26,7.57,7.57,0,0,1-3-4.79,7.42,7.42,0,0,1,.63-4.75,6.45,6.45,0,0,1,2.55-2.75,8.94,8.94,0,0,1,2.17-1,1.58,1.58,0,0,0,1.13-1.11,10.21,10.21,0,0,1,5.09-6A10.87,10.87,0,0,1,20.32,15a11.86,11.86,0,0,1,3.26,0,11,11,0,0,1,2.93.88l.59.23.1.07a12.38,12.38,0,0,1,4.22,4.23.8.8,0,0,0,.15.21.39.39,0,0,0,.47.11.6.6,0,0,1,.37,0l.2,0c.42,0,.85,0,1.27.08a7,7,0,0,1,2.6.81,8,8,0,0,1,3.31,3.78,9,9,0,0,1,.57,2.05M29.24,21s0,0,0,0a10.52,10.52,0,0,0-1.63-1.83,8.41,8.41,0,0,0-2-1.35,8.21,8.21,0,0,0-3-.73,8.54,8.54,0,0,0-1.13,0,10.86,10.86,0,0,0-1.38.18,8.66,8.66,0,0,0-2.83,1,7.3,7.3,0,0,0-2.44,2.25,8.5,8.5,0,0,0-1.13,2.35c-.14.43-.22.87-.39,1.28a1.42,1.42,0,0,1-1.26.92,2.71,2.71,0,0,0-.4,0A8.26,8.26,0,0,0,9.42,26a4.51,4.51,0,0,0-1.67,1.77A5.28,5.28,0,0,0,7.21,30a5.44,5.44,0,0,0,0,1.14,5,5,0,0,0,.45,1.52A4.87,4.87,0,0,0,8.94,34.3a1.81,1.81,0,0,0,.41.32l.05.06a4.12,4.12,0,0,0,1,.59,3.62,3.62,0,0,0,1.33.33c.6,0,1.21,0,1.81,0,1.46,0,2.92,0,4.37,0,3.41,0,6.82,0,10.23,0,.59,0,1.19,0,1.78,0l2,0a9.79,9.79,0,0,0,1.33-.08A6.23,6.23,0,0,0,34.93,35a5.62,5.62,0,0,0,2.12-1.65,6.59,6.59,0,0,0,1.05-1.93,6.5,6.5,0,0,0,.38-2c0-.22,0-.45,0-.67a7,7,0,0,0-.17-1.12,8.24,8.24,0,0,0-.81-2.08A5.14,5.14,0,0,0,36.13,24a5.65,5.65,0,0,0-1.36-.8,4.78,4.78,0,0,0-1.53-.38,4.85,4.85,0,0,0-1.32.12,7.93,7.93,0,0,0-1.37.38,8.54,8.54,0,0,0-2,1.09,6.93,6.93,0,0,1-.85.56.56.56,0,0,1-.66-.1,4.51,4.51,0,0,1-.37-.39,6.51,6.51,0,0,1-.46-.58.33.33,0,0,1,0-.44.67.67,0,0,1,.15-.14l.79-.56a10.69,10.69,0,0,1,1.35-.87c.23-.12.48-.2.72-.33a.29.29,0,0,0,.14-.41A.86.86,0,0,0,29.24,21Z" transform="translate(-5.05 -10.76)"/><path class="a7763f3a-f166-4480-a264-12b320c4e494" d="M29.24,21a.86.86,0,0,1,.13.2.29.29,0,0,1-.14.41c-.24.13-.49.21-.72.33a10.69,10.69,0,0,0-1.35.87l-.79.56a.67.67,0,0,0-.15.14.33.33,0,0,0,0,.44,6.51,6.51,0,0,0,.46.58,4.51,4.51,0,0,0,.37.39.56.56,0,0,0,.66.1,6.93,6.93,0,0,0,.85-.56,8.54,8.54,0,0,1,2-1.09A7.93,7.93,0,0,1,31.92,23a4.85,4.85,0,0,1,1.32-.12,4.78,4.78,0,0,1,1.53.38,5.65,5.65,0,0,1,1.36.8,5.14,5.14,0,0,1,1.35,1.55,8.24,8.24,0,0,1,.81,2.08,7,7,0,0,1,.17,1.12c0,.22,0,.45,0,.67a6.5,6.5,0,0,1-.38,2,6.59,6.59,0,0,1-1.05,1.93A5.62,5.62,0,0,1,34.93,35a6.23,6.23,0,0,1-1.68.49,9.79,9.79,0,0,1-1.33.08l-2,0c-.59,0-1.19,0-1.78,0-3.41,0-6.82,0-10.23,0-1.45,0-2.91,0-4.37,0-.6,0-1.21,0-1.81,0a3.62,3.62,0,0,1-1.33-.33,4.12,4.12,0,0,1-1-.59l-.05-.06a5.59,5.59,0,0,0,1,0c.49-.08,1-.21,1.47-.32s1.07-.25,1.6-.41A16.12,16.12,0,0,0,15.64,33a13.11,13.11,0,0,0,2.23-1.3,12.76,12.76,0,0,0,1.4-1.15c.24-.24.49-.49.72-.74s.56-.62.82-.94c.41-.51.82-1,1.2-1.57l1.61-2.22a12.07,12.07,0,0,1,1.11-1.35,9.71,9.71,0,0,1,.88-.82,7.89,7.89,0,0,1,1.2-.81,6.88,6.88,0,0,1,2.07-.72A.39.39,0,0,0,29.24,21Z" transform="translate(-5.05 -10.76)"/><path class="b986a3f2-4f5b-4e04-8f8d-89fba4cd82c8" d="M29.24,21a.39.39,0,0,1-.36.4,6.88,6.88,0,0,0-2.07.72,7.89,7.89,0,0,0-1.2.81,9.71,9.71,0,0,0-.88.82,12.07,12.07,0,0,0-1.11,1.35L22,27.29c-.38.54-.79,1.06-1.2,1.57-.26.32-.54.63-.82.94s-.48.5-.72.74a12.76,12.76,0,0,1-1.4,1.15A13.11,13.11,0,0,1,15.64,33a16.12,16.12,0,0,1-2.22.85c-.53.16-1.06.3-1.6.41s-1,.24-1.47.32a5.59,5.59,0,0,1-1,0,1.81,1.81,0,0,1-.41-.32,4.87,4.87,0,0,1-1.25-1.63,5,5,0,0,1-.45-1.52,5.44,5.44,0,0,1,0-1.14,5.28,5.28,0,0,1,.54-2.24A4.51,4.51,0,0,1,9.42,26a8.26,8.26,0,0,1,2.17-.91,2.71,2.71,0,0,1,.4,0,1.42,1.42,0,0,0,1.26-.92c.17-.41.25-.85.39-1.28a8.5,8.5,0,0,1,1.13-2.35,7.3,7.3,0,0,1,2.44-2.25,8.66,8.66,0,0,1,2.83-1,10.86,10.86,0,0,1,1.38-.18,8.54,8.54,0,0,1,1.13,0,8.21,8.21,0,0,1,3,.73,8.41,8.41,0,0,1,2,1.35A10.52,10.52,0,0,1,29.22,21S29.23,21,29.24,21Z" transform="translate(-5.05 -10.76)"/></g></svg>