<svg xmlns="http://www.w3.org/2000/svg" viewBox="0 0 39.91 34.56"><defs><style>.ffbe1cef-ca58-42e3-a8e5-72558dd56d60{fill:#999;}.b02b0fdc-005e-43b5-a70b-8dd802817e14{fill:#ccc;}.ae713828-8662-4dff-b3c6-bf9ffa049dd8{fill:#e6e6e6;}.e928f9ce-0c85-4c56-a26a-b020484469e5{fill:#34cdf7;}.a455a642-e49a-48de-8dc4-7fceb6841b0e{fill:#9fedff;}.e740b4b3-70bd-433d-b89b-076b6b187468{fill:#c8f2fc;}.beebceea-2ea4-495b-8502-d5273ebc9317{fill:#4d4d4d;}.b807beba-0953-43fa-b2dd-c123f5fd5374{fill:#fdb348;}.fcc1921c-3f6a-4f6b-98d5-1807ad08e0ba{fill:#fcd041;}</style></defs><title>11d</title><g id="e9473285-2fe1-4b4a-9b6d-dc9e95c10b43" data-name="small cloud"><path class="ffbe1cef-ca58-42e3-a8e5-72558dd56d60" d="M45,23.5a5.08,5.08,0,0,1-.27,1.64,5.83,5.83,0,0,1-2.41,3,6.49,6.49,0,0,1-2.71,1,5.79,5.79,0,0,1-.72,0H37.11c-1.29,0-2.57,0-3.86,0H26.46l-2.71,0A4.64,4.64,0,0,1,21,28.23a5.59,5.59,0,0,1-2.23-3.55,5.51,5.51,0,0,1,.46-3.53,4.79,4.79,0,0,1,1.9-2,6.7,6.7,0,0,1,1.6-.7,1.19,1.19,0,0,0,.84-.83,7.76,7.76,0,0,1,1.34-2.46,7.43,7.43,0,0,1,2.44-2A8.13,8.13,0,0,1,30,12.31a8.53,8.53,0,0,1,2.42,0A8.62,8.62,0,0,1,34.6,13c.15.07.3.12.44.17s.05,0,.07.06a9,9,0,0,1,3.13,3.14.57.57,0,0,0,.12.15.31.31,0,0,0,.35.09.42.42,0,0,1,.27,0l.14,0c.32,0,.64,0,1,.06a5.24,5.24,0,0,1,1.93.6,6,6,0,0,1,2.46,2.81,7.13,7.13,0,0,1,.42,1.52m-8.25-4.83,0,0a7.8,7.8,0,0,0-1.21-1.36,6.25,6.25,0,0,0-1.51-1,6,6,0,0,0-2.23-.55,7.69,7.69,0,0,0-.83,0,8.78,8.78,0,0,0-1,.13,6.62,6.62,0,0,0-2.1.76,5.56,5.56,0,0,0-1.81,1.67,6.57,6.57,0,0,0-.84,1.75c-.1.31-.16.63-.29.94a1.06,1.06,0,0,1-.93.69,1.51,1.51,0,0,0-.3,0,6.33,6.33,0,0,0-1.61.68,3.42,3.42,0,0,0-1.24,1.32,3.93,3.93,0,0,0-.4,1.65,4,4,0,0,0,0,.85,3.68,3.68,0,0,0,.33,1.13,3.78,3.78,0,0,0,.92,1.21,2.26,2.26,0,0,0,.31.23l0,.05a3.83,3.83,0,0,0,.73.44,2.87,2.87,0,0,0,1,.24c.45,0,.89,0,1.34,0,1.08,0,2.17,0,3.25,0,2.53,0,5.05,0,7.58,0h1.32l1.5,0a8.06,8.06,0,0,0,1-.06,5,5,0,0,0,1.25-.36,4.3,4.3,0,0,0,1.57-1.23,5,5,0,0,0,.78-1.44A4.56,4.56,0,0,0,43.48,23c0-.16,0-.33,0-.5a4.77,4.77,0,0,0-.13-.83,6.16,6.16,0,0,0-.6-1.54,3.94,3.94,0,0,0-1-1.15,4.49,4.49,0,0,0-1-.6,3.74,3.74,0,0,0-1.14-.28,4.07,4.07,0,0,0-1,.09,6.1,6.1,0,0,0-1,.29,6.42,6.42,0,0,0-1.48.8,3.84,3.84,0,0,1-.63.42.41.41,0,0,1-.49-.08,3.57,3.57,0,0,1-.27-.28c-.12-.15-.24-.28-.35-.43a.27.27,0,0,1,0-.33.57.57,0,0,1,.11-.11l.59-.41a9.38,9.38,0,0,1,1-.65c.18-.09.36-.15.54-.24a.21.21,0,0,0,.1-.3A.46.46,0,0,0,36.63,16.74Z" transform="translate(-5.05 -12.23)"/><path class="b02b0fdc-005e-43b5-a70b-8dd802817e14" d="M36.63,16.74a.46.46,0,0,1,.09.15.21.21,0,0,1-.1.3c-.18.09-.36.15-.54.24a9.38,9.38,0,0,0-1,.65l-.59.41a.57.57,0,0,0-.11.11.27.27,0,0,0,0,.33c.11.15.23.28.35.43a3.57,3.57,0,0,0,.27.28.41.41,0,0,0,.49.08,3.84,3.84,0,0,0,.63-.42,6.42,6.42,0,0,1,1.48-.8,6.1,6.1,0,0,1,1-.29,4.07,4.07,0,0,1,1-.09,3.74,3.74,0,0,1,1.14.28,4.49,4.49,0,0,1,1,.6,3.94,3.94,0,0,1,1,1.15,6.16,6.16,0,0,1,.6,1.54,4.77,4.77,0,0,1,.13.83c0,.17,0,.34,0,.5a4.56,4.56,0,0,1-.28,1.47,5,5,0,0,1-.78,1.44,4.3,4.3,0,0,1-1.57,1.23,5,5,0,0,1-1.25.36,8.06,8.06,0,0,1-1,.06l-1.5,0H35.8c-2.53,0-5,0-7.58,0-1.08,0-2.17,0-3.25,0-.45,0-.89,0-1.34,0a2.87,2.87,0,0,1-1-.24,3.83,3.83,0,0,1-.73-.44l0-.05a3.64,3.64,0,0,0,.74,0c.37-.07.73-.16,1.09-.24a12.23,12.23,0,0,0,1.19-.31,12.66,12.66,0,0,0,1.65-.62,9.77,9.77,0,0,0,1.65-1,9.4,9.4,0,0,0,1-.85l.54-.55c.21-.23.41-.46.6-.7s.61-.76.89-1.16l1.2-1.65a9.78,9.78,0,0,1,.82-1,7.59,7.59,0,0,1,.66-.6,5.34,5.34,0,0,1,.89-.6A5.17,5.17,0,0,1,36.36,17,.28.28,0,0,0,36.63,16.74Z" transform="translate(-5.05 -12.23)"/><path class="ae713828-8662-4dff-b3c6-bf9ffa049dd8" d="M36.63,16.74a.28.28,0,0,1-.27.29,5.17,5.17,0,0,0-1.53.54,5.34,5.34,0,0,0-.89.6,7.59,7.59,0,0,0-.66.6,9.78,9.78,0,0,0-.82,1l-1.2,1.65c-.28.4-.58.78-.89,1.16s-.39.47-.6.7l-.54.55a9.4,9.4,0,0,1-1,.85,9.77,9.77,0,0,1-1.65,1,12.66,12.66,0,0,1-1.65.62,12.23,12.23,0,0,1-1.19.31c-.36.08-.72.17-1.09.24a3.64,3.64,0,0,1-.74,0,2.26,2.26,0,0,1-.31-.23,3.78,3.78,0,0,1-.92-1.21,3.68,3.68,0,0,1-.33-1.13,4,4,0,0,1,0-.85,3.93,3.93,0,0,1,.4-1.65,3.42,3.42,0,0,1,1.24-1.32,6.33,6.33,0,0,1,1.61-.68,1.51,1.51,0,0,1,.3,0,1.06,1.06,0,0,0,.93-.69c.13-.31.19-.63.29-.94a6.57,6.57,0,0,1,.84-1.75,5.56,5.56,0,0,1,1.81-1.67A6.62,6.62,0,0,1,29.8,14a8.78,8.78,0,0,1,1-.13,7.69,7.69,0,0,1,.83,0,6,6,0,0,1,2.23.55,6.25,6.25,0,0,1,1.51,1,7.8,7.8,0,0,1,1.21,1.36Z" transform="translate(-5.05 -12.23)"/></g><g id="ac5cc6ad-8758-4dce-9934-bfea7b4cfc0a" data-name="cloud"><path class="e928f9ce-0c85-4c56-a26a-b020484469e5" d="M40.46,30.09a6.66,6.66,0,0,1-.37,2.21,7.77,7.77,0,0,1-3.24,4,8.75,8.75,0,0,1-3.66,1.33,7.89,7.89,0,0,1-1,.06c-.78,0-1.56,0-2.33,0-1.74,0-3.47,0-5.2,0-1.38,0-2.75,0-4.13,0h-5c-1.22,0-2.44,0-3.66,0a6.21,6.21,0,0,1-3.67-1.26,7.57,7.57,0,0,1-3-4.79,7.42,7.42,0,0,1,.63-4.75,6.45,6.45,0,0,1,2.55-2.75,8.94,8.94,0,0,1,2.17-1,1.58,1.58,0,0,0,1.13-1.11,10.21,10.21,0,0,1,5.09-6A10.87,10.87,0,0,1,20.32,15a11.86,11.86,0,0,1,3.26,0,11,11,0,0,1,2.93.88l.59.23.1.07a12.38,12.38,0,0,1,4.22,4.23.8.8,0,0,0,.15.21.39.39,0,0,0,.47.11.6.6,0,0,1,.37,0l.2,0c.42,0,.85,0,1.27.08a7,7,0,0,1,2.6.81,8,8,0,0,1,3.31,3.78,9,9,0,0,1,.57,2.05M29.24,21s0,0,0,0a10.52,10.52,0,0,0-1.63-1.83,8.41,8.41,0,0,0-2-1.35,8.21,8.21,0,0,0-3-.73,8.54,8.54,0,0,0-1.13,0,10.86,10.86,0,0,0-1.38.18,8.66,8.66,0,0,0-2.83,1,7.3,7.3,0,0,0-2.44,2.25,8.5,8.5,0,0,0-1.13,2.35c-.14.43-.22.87-.39,1.28a1.42,1.42,0,0,1-1.26.92,2.71,2.71,0,0,0-.4,0A8.26,8.26,0,0,0,9.42,26a4.51,4.51,0,0,0-1.67,1.77A5.28,5.28,0,0,0,7.21,30a5.44,5.44,0,0,0,0,1.14,5,5,0,0,0,.45,1.52A4.87,4.87,0,0,0,8.94,34.3a1.81,1.81,0,0,0,.41.32l.05.06a4.12,4.12,0,0,0,1,.59,3.62,3.62,0,0,0,1.33.33c.6,0,1.21,0,1.81,0,1.46,0,2.92,0,4.37,0,3.41,0,6.82,0,10.23,0,.59,0,1.19,0,1.78,0l2,0a9.79,9.79,0,0,0,1.33-.08A6.23,6.23,0,0,0,34.93,35a5.62,5.62,0,0,0,2.12-1.65,6.59,6.59,0,0,0,1.05-1.93,6.5,6.5,0,0,0,.38-2c0-.22,0-.45,0-.67a7,7,0,0,0-.17-1.12,8.24,8.24,0,0,0-.81-2.08A5.14,5.14,0,0,0,36.13,24a5.65,5.65,0,0,0-1.36-.8,4.78,4.78,0,0,0-1.53-.38,4.85,4.85,0,0,0-1.32.12,7.93,7.93,0,0,0-1.37.38,8.54,8.54,0,0,0-2,1.09,6.93,6.93,0,0,1-.85.56.56.56,0,0,1-.66-.1,4.51,4.51,0,0,1-.37-.39,6.51,6.51,0,0,1-.46-.58.33.33,0,0,1,0-.44.67.67,0,0,1,.15-.14l.79-.56a10.69,10.69,0,0,1,1.35-.87c.23-.12.48-.2.72-.33a.29.29,0,0,0,.14-.41A.86.86,0,0,0,29.24,21Z" transform="translate(-5.05 -12.23)"/><path class="a455a642-e49a-48de-8dc4-7fceb6841b0e" d="M29.24,21a.86.86,0,0,1,.13.2.29.29,0,0,1-.14.41c-.24.13-.49.21-.72.33a10.69,10.69,0,0,0-1.35.87l-.79.56a.67.67,0,0,0-.15.14.33.33,0,0,0,0,.44,6.51,6.51,0,0,0,.46.58,4.51,4.51,0,0,0,.37.39.56.56,0,0,0,.66.1,6.93,6.93,0,0,0,.85-.56,8.54,8.54,0,0,1,2-1.09A7.93,7.93,0,0,1,31.92,23a4.85,4.85,0,0,1,1.32-.12,4.78,4.78,0,0,1,1.53.38,5.65,5.65,0,0,1,1.36.8,5.14,5.14,0,0,1,1.35,1.55,8.24,8.24,0,0,1,.81,2.08,7,7,0,0,1,.17,1.12c0,.22,0,.45,0,.67a6.5,6.5,0,0,1-.38,2,6.59,6.59,0,0,1-1.05,1.93A5.62,5.62,0,0,1,34.93,35a6.23,6.23,0,0,1-1.68.49,9.79,9.79,0,0,1-1.33.08l-2,0c-.59,0-1.19,0-1.78,0-3.41,0-6.82,0-10.23,0-1.45,0-2.91,0-4.37,0-.6,0-1.21,0-1.81,0a3.62,3.62,0,0,1-1.33-.33,4.12,4.12,0,0,1-1-.59l-.05-.06a5.59,5.59,0,0,0,1,0c.49-.08,1-.21,1.47-.32s1.07-.25,1.6-.41A16.12,16.12,0,0,0,15.64,33a13.11,13.11,0,0,0,2.23-1.3,12.76,12.76,0,0,0,1.4-1.15c.24-.24.49-.49.72-.74s.56-.62.82-.94c.41-.51.82-1,1.2-1.57l1.61-2.22a12.07,12.07,0,0,1,1.11-1.35,9.71,9.71,0,0,1,.88-.82,7.89,7.89,0,0,1,1.2-.81,6.88,6.88,0,0,1,2.07-.72A.39.39,0,0,0,29.24,21Z" transform="translate(-5.05 -12.23)"/><path class="e740b4b3-70bd-433d-b89b-076b6b187468" d="M29.24,21a.39.39,0,0,1-.36.4,6.88,6.88,0,0,0-2.07.72,7.89,7.89,0,0,0-1.2.81,9.71,9.71,0,0,0-.88.82,12.07,12.07,0,0,0-1.11,1.35L22,27.29c-.38.54-.79,1.06-1.2,1.57-.26.32-.54.63-.82.94s-.48.5-.72.74a12.76,12.76,0,0,1-1.4,1.15A13.11,13.11,0,0,1,15.64,33a16.12,16.12,0,0,1-2.22.85c-.53.16-1.06.3-1.6.41s-1,.24-1.47.32a5.59,5.59,0,0,1-1,0,1.81,1.81,0,0,1-.41-.32,4.87,4.87,0,0,1-1.25-1.63,5,5,0,0,1-.45-1.52,5.44,5.44,0,0,1,0-1.14,5.28,5.28,0,0,1,.54-2.24A4.51,4.51,0,0,1,9.42,26a8.26,8.26,0,0,1,2.17-.91,2.71,2.71,0,0,1,.4,0,1.42,1.42,0,0,0,1.26-.92c.17-.41.25-.85.39-1.28a8.5,8.5,0,0,1,1.13-2.35,7.3,7.3,0,0,1,2.44-2.25,8.66,8.66,0,0,1,2.83-1,10.86,10.86,0,0,1,1.38-.18,8.54,8.54,0,0,1,1.13,0,8.21,8.21,0,0,1,3,.73,8.41,8.41,0,0,1,2,1.35A10.52,10.52,0,0,1,29.22,21S29.23,21,29.24,21Z" transform="translate(-5.05 -12.23)"/></g><g id="ee35d6ae-6232-497c-82ad-3442bd292026" data-name="Слой 6"><path class="beebceea-2ea4-495b-8502-d5273ebc9317" d="M24.4,40a.41.41,0,0,1,0,.6q-2.16,3-4.3,6c-.16.21-.34.28-.52.19a.41.41,0,0,1-.2-.51q.69-3.27,1.36-6.54c.18-.9.37-1.81.57-2.72,0-.15,0-.19-.16-.2l-3.23-.25c-.42,0-.56-.23-.42-.62q1.77-5,3.56-10.08c.1-.28.21-.35.51-.32l5.49.43c.39,0,.53.23.4.59-.56,1.59-1.11,3.19-1.69,4.77-.07.22,0,.24.18.25l3.9.31a.54.54,0,0,1,.39.13c.17.19.1.37,0,.55l-2.1,2.91c-.39.54-.78,1.09-1.18,1.63-.18.26-.29.29-.6.2-.21-.26-.22-.35,0-.63l2.79-3.87a.32.32,0,0,0,.12-.23l-.28,0-3.89-.32c-.28-.18-.3-.28-.17-.65q.83-2.36,1.66-4.7c.07-.19,0-.22-.16-.24-1.48-.11-2.95-.22-4.42-.35a.26.26,0,0,0-.33.21q-1.37,3.9-2.75,7.81l-.54,1.53.29,0,3.11.25c.36,0,.49.2.42.54s-.09.45-.14.68c-.3,1.42-.6,2.85-.89,4.27-.15.73-.29,1.46-.44,2.19-.05.23-.1.46-.16.69,0,0-.07.08,0,.11s.1,0,.13-.06l.09-.13,3-4.19C24,39.93,24.09,39.9,24.4,40Z" transform="translate(-5.05 -12.23)"/><path class="b807beba-0953-43fa-b2dd-c123f5fd5374" d="M25.07,32.22l3.89.32.28,0a.32.32,0,0,1-.12.23l-2.79,3.87c-.2.28-.19.37,0,.63a3.75,3.75,0,0,1-.38.51c-.31-.09-.41-.06-.59.18l-.47.65c-.19.27-.19.38,0,.63L24.4,40c-.31-.11-.43-.08-.62.19l-3,4.19-.09.13s-.07.1-.13.06,0-.07,0-.11c.06-.23.11-.46.16-.69.07,0,.07-.1.1-.16l1.08-2.89c.53-1.43,1.07-2.85,1.6-4.28Z" transform="translate(-5.05 -12.23)"/><path class="beebceea-2ea4-495b-8502-d5273ebc9317" d="M25,39.26c-.23-.25-.23-.36,0-.63l.47-.65c.18-.24.28-.27.59-.18.21.24.22.35,0,.61l-.48.65C25.35,39.31,25.26,39.34,25,39.26Z" transform="translate(-5.05 -12.23)"/><path class="fcc1921c-3f6a-4f6b-98d5-1807ad08e0ba" d="M25.07,32.22l-1.58,4.23c-.53,1.43-1.07,2.85-1.6,4.28l-1.08,2.89c0,.06,0,.13-.1.16.15-.73.29-1.46.44-2.19.29-1.42.59-2.85.89-4.27.05-.23.1-.45.14-.68s-.06-.51-.42-.54l-3.11-.25-.29,0,.54-1.53q1.38-3.91,2.75-7.81a.26.26,0,0,1,.33-.21c1.47.13,2.94.24,4.42.35.19,0,.23.05.16.24q-.84,2.34-1.66,4.7C24.77,31.94,24.79,32,25.07,32.22Z" transform="translate(-5.05 -12.23)"/></g></svg>