<svg id="b2832a92-0933-4c20-b191-23fdbaf8d340" data-name="snow" xmlns="http://www.w3.org/2000/svg" viewBox="0 0 27.48 31.32"><defs><style>.e4641895-b2df-4a35-924b-fe2995cf3d0a{fill:#504a48;}.f1522129-caba-4524-a724-500f5ecfc7a1{fill:#97d3e4;}.a47a6e67-1b5f-46a0-b955-77d99b59a6d6{fill:#11b7dd;}.b0429835-e844-471b-9bdd-43c9d7baadea{fill:#13b7dc;}.f12780a1-71f7-4bf1-98e1-d4685c39b6b2{fill:#12b8de;}.bc9ff3ab-e2ef-44f9-8a39-8d431590809b{fill:#f6f8f9;}</style></defs><title>13n</title><path class="e4641895-b2df-4a35-924b-fe2995cf3d0a" d="M23.16,37l-.56.52a1.76,1.76,0,0,1-2.43-.11,1.73,1.73,0,0,1,0-2.43c.81-.86,1.65-1.7,2.51-2.51a1.52,1.52,0,0,0,.51-1.28c0-.95,0-1.9,0-3l-3.1,1.84c-.17.1-.17.3-.22.48-.31,1.22-.61,2.45-1,3.66a1.76,1.76,0,0,1-3,.8,1.72,1.72,0,0,1-.48-1.52c0-.23.09-.47.14-.77l-1.48.86a1.84,1.84,0,1,1-1.85-3.17c.44-.28.9-.54,1.36-.81-.14-.26-.41-.2-.6-.27a1.79,1.79,0,0,1-1.17-2.15A1.75,1.75,0,0,1,14,25.92c1.25.3,2.49.62,3.73.95a.73.73,0,0,0,.63-.05L21.38,25a15.32,15.32,0,0,1-1.8-1.09,3,3,0,0,0-3.21-.46,15,15,0,0,1-2.3.6,1.77,1.77,0,0,1-2.24-1.26,1.8,1.8,0,0,1,1.32-2.16c.15-.05.33,0,.47-.22l-1.34-.8a1.84,1.84,0,1,1,1.84-3.18l1.41.82c.09-.25-.06-.44-.09-.64a1.8,1.8,0,0,1,1.34-2.1,1.75,1.75,0,0,1,2.11,1.3c.34,1.21.64,2.44.95,3.66a.68.68,0,0,0,.29.51l3,1.79v-3.6c0-.21-.18-.31-.31-.44l-2.46-2.46a1.8,1.8,0,1,1,2.49-2.54l.28.24V11.33a1.84,1.84,0,1,1,3.68,0v1.53c.25.08.32-.15.44-.26a1.78,1.78,0,1,1,2.47,2.55c-.84.86-1.68,1.71-2.55,2.55a1.08,1.08,0,0,0-.37.91c0,1,0,2,0,3.18a11.32,11.32,0,0,1,1.55-.89A3.2,3.2,0,0,0,30.55,18a12.8,12.8,0,0,1,.52-2.07,1.78,1.78,0,0,1,2.19-1.42,1.82,1.82,0,0,1,1.25,2.31l-.12.46,1.47-.85a1.84,1.84,0,1,1,1.88,3.16c-.45.28-.9.54-1.37.81.21.24.48.2.7.29a1.77,1.77,0,0,1,1.08,2.14,1.74,1.74,0,0,1-2.08,1.25c-1.27-.3-2.53-.63-3.79-1a.7.7,0,0,0-.63.07c-.87.52-1.74,1.05-2.63,1.55-.37.21-.31.32,0,.51.87.49,1.73,1,2.58,1.52a.77.77,0,0,0,.68.09c1.18-.32,2.37-.61,3.55-.9a1.76,1.76,0,0,1,2.31,1.21,1.8,1.8,0,0,1-1.39,2.22l-.47.13c.54.32,1,.58,1.41.85a1.84,1.84,0,1,1-1.86,3.17l-1.42-.83c.06.32.12.57.15.83a1.77,1.77,0,0,1-1.38,2,1.75,1.75,0,0,1-2.06-1.22c-.35-1.24-.66-2.48-1-3.73a.79.79,0,0,0-.37-.58c-.95-.55-1.89-1.12-2.95-1.74,0,.88.06,1.69,0,2.48a2.28,2.28,0,0,0,.91,2.16c.67.56,1.25,1.23,1.87,1.85a1.79,1.79,0,1,1-2.46,2.56l-.3-.26v1.57a1.85,1.85,0,1,1-3.68,0ZM24,26.89c0,1.63,0,3.26,0,4.88a1.12,1.12,0,0,1-.39.91c-1,1-1.94,2-2.91,3A.92.92,0,0,0,20.86,37a1,1,0,0,0,1.33-.15A23.28,23.28,0,0,1,24,35.14L24,38a2.08,2.08,0,0,0,0,1.08,1,1,0,0,0,2,0A2.08,2.08,0,0,0,26,38l.05-2.84a23.28,23.28,0,0,1,1.76,1.68,1,1,0,0,0,1.33.15.93.93,0,0,0,.17-1.34l-2.95-3A.91.91,0,0,1,26,32c0-1.69,0-3.38,0-5.07,1.45.72,2.8,1.65,4.22,2.43a1.19,1.19,0,0,1,.63.83c.3,1.26.64,2.51,1,3.77a1,1,0,0,0,1.93,0,1.24,1.24,0,0,0-.14-.82l-.49-2.1.64.35c.86.51,1.71,1,2.59,1.52a1,1,0,0,0,1.39-.33,1.05,1.05,0,0,0-.36-1.44c-.71-.45-1.44-.85-2.15-1.28a3.08,3.08,0,0,1-1-.67l1.16-.3,1.12-.3a1,1,0,0,0,.82-.86c.07-.75-.54-1.2-1.36-1-1.26.32-2.52.64-3.78,1a.91.91,0,0,1-.8-.1c-1.29-.78-2.59-1.54-3.89-2.31-.16-.1-.4-.14-.41-.4,1.36-.79,2.72-1.56,4.06-2.38a1.48,1.48,0,0,1,1.31-.18c1.17.34,2.35.63,3.54.92A1,1,0,0,0,37.21,23a.92.92,0,0,0,0-1.14c-.18-.35-.55-.39-.88-.48l-2.15-.56c1.16-.68,2.17-1.27,3.18-1.89a1.05,1.05,0,0,0,.4-1.47,1,1,0,0,0-1.44-.3c-.81.46-1.61.95-2.42,1.42a1.58,1.58,0,0,1-.74.33c.19-.77.37-1.47.54-2.18s-.06-1.23-.63-1.36-1,.15-1.23.87c-.32,1.24-.65,2.47-.95,3.72a1.1,1.1,0,0,1-.55.74c-1.31.76-2.6,1.53-3.9,2.3-.11.06-.22.18-.42.1V18a.77.77,0,0,1,.32-.56l2.77-2.77a1,1,0,0,0,.37-1.09,1,1,0,0,0-1.62-.38c-.59.55-1.13,1.14-1.7,1.73a.7.7,0,0,1-.14-.56c0-.73,0-1.47,0-2.2,0-1.5-.25-2-1-2s-1,.47-1,1.93V14.8l-.24.15a3.67,3.67,0,0,0-.36-.57c-.42-.44-.85-.88-1.3-1.29a1,1,0,0,0-1.41.15.83.83,0,0,0,.24,1.27l0,0c0,.24.21.33.34.47.79.8,1.58,1.59,2.38,2.37a1.05,1.05,0,0,1,.34.81c0,1.3,0,2.61,0,3.91V23.2l-4.52-2.68a.78.78,0,0,1-.33-.55c-.32-1.26-.65-2.52-1-3.79a1,1,0,0,0-.63-.83.93.93,0,0,0-1,.16,1,1,0,0,0-.3,1c.2.77.39,1.55.61,2.45l-.66-.37c-.86-.5-1.71-1-2.58-1.51a1,1,0,0,0-1.39.34,1,1,0,0,0,.36,1.43c.59.37,1.2.7,1.79,1.07a6.12,6.12,0,0,1,1.35.88c-.75.19-1.44.36-2.12.55-.31.08-.65.12-.82.46a.92.92,0,0,0,0,1.14,1,1,0,0,0,1.15.32c1.17-.29,2.34-.56,3.49-.9a1.57,1.57,0,0,1,1.42.19c1.31.81,2.66,1.57,4,2.35,0,.18-.13.24-.25.31l-4.14,2.46a.83.83,0,0,1-.69,0l-3.72-1a1.11,1.11,0,0,0-1.19.22,1,1,0,0,0,.54,1.61c.75.22,1.52.4,2.29.6-.11.26-.32.31-.49.41-.85.51-1.72,1-2.57,1.53a1,1,0,0,0-.42,1.42,1,1,0,0,0,1.43.37c.2-.1.38-.23.58-.34L16.85,31l-.49,2.12c-.28.79-.08,1.35.55,1.54s1.07-.16,1.28-.95c.32-1.21.63-2.43.94-3.65.06-.21.07-.45.3-.58C21,28.66,22.4,27.67,24,26.89Z" transform="translate(-11.26 -9.34)"/><path class="f1522129-caba-4524-a724-500f5ecfc7a1" d="M20.91,14.51a.83.83,0,0,1-.24-1.27,1,1,0,0,1,1.41-.15c.45.41.88.85,1.3,1.29a3.67,3.67,0,0,1,.36.57L24,14.8V12.09c0-1.46.24-1.92,1-1.93s1,.46,1,2c0,.73,0,1.47,0,2.2a.7.7,0,0,0,.14.56c.57-.59,1.11-1.18,1.7-1.73a1,1,0,0,1,1.62.38,1,1,0,0,1-.37,1.09l-2.77,2.77A.77.77,0,0,0,26,18v5.1c.2.08.31,0,.42-.1,1.3-.77,2.59-1.54,3.9-2.3a1.1,1.1,0,0,0,.55-.74c.3-1.25.63-2.48.95-3.72.19-.72.62-1,1.23-.87s.81.64.63,1.36-.35,1.41-.54,2.18a1.58,1.58,0,0,0,.74-.33c.81-.47,1.61-1,2.42-1.42a1,1,0,0,1,1.44.3,1.05,1.05,0,0,1-.4,1.47c-1,.62-2,1.21-3.18,1.89l2.15.56c.33.09.7.13.88.48a1.18,1.18,0,0,1-1.23.28c-1.19-.34-2.4-.61-3.6-.94a1.33,1.33,0,0,0-1.1.16c-1.18.72-2.38,1.41-3.56,2.12-.75.45-.79.57-.57,1.48,0,.26.25.3.41.4,1.3.77,2.6,1.53,3.89,2.31a.91.91,0,0,0,.8.1c1.26-.34,2.52-.66,3.78-1,.82-.2,1.43.25,1.36,1a1,1,0,0,1-.82.86l-1.12.3-1.16.3a3.08,3.08,0,0,0,1,.67c.71.43,1.44.83,2.15,1.28a1.05,1.05,0,0,1,.36,1.44,1,1,0,0,1-1.39.33c-.88-.49-1.73-1-2.59-1.52l-.64-.35c.18.77.34,1.44.49,2.1-.87.71-1.53.5-1.82-.58s-.64-2.35-.91-3.54a1.31,1.31,0,0,0-.69-.92c-1.08-.62-2.14-1.26-3.21-1.88-.29-.17-.65-.58-.88-.42s-.11.7-.09,1.08c0,1.69,0,3.38,0,5.07a.91.91,0,0,0,.35.67l2.95,3c-.67.5-1,.49-1.6-.06-.31-.29-.6-.61-.91-.9s-.39-.51-.79-.62a4.3,4.3,0,0,0,0,1.09c0,1,0,1.89-.05,2.84-.61,1-1.39,1-2,0,0-.95,0-1.89-.05-2.84a2.34,2.34,0,0,0-.07-1.21c-.58.6-1.07,1.13-1.59,1.64s-.93.56-1.6.06c1-1,1.93-2,2.91-3a1.12,1.12,0,0,0,.39-.91c0-1.62,0-3.25,0-4.88,0-.24,0-.48,0-.72,0-.45-.12-.48-.49-.26-1.26.77-2.54,1.52-3.82,2.27a1.06,1.06,0,0,0-.57.73c-.3,1.23-.62,2.44-.94,3.66s-.95,1.29-1.82.58L16.85,31l-2.63,1.55c-.2.11-.38.24-.58.34a1,1,0,0,1-1.43-.37,1,1,0,0,1,.42-1.42c.85-.53,1.72-1,2.57-1.53.17-.1.38-.15.49-.41-.77-.2-1.54-.38-2.29-.6A1,1,0,0,1,12.86,27a1.11,1.11,0,0,1,1.19-.22l3.72,1a.83.83,0,0,0,.69,0l4.14-2.46c.12-.07.26-.13.25-.31.08-.46.32-1-.25-1.29-1.31-.78-2.63-1.55-3.94-2.34a1.23,1.23,0,0,0-1-.13c-1.2.33-2.41.6-3.6.94a1.18,1.18,0,0,1-1.23-.28c.17-.34.51-.38.82-.46.68-.19,1.37-.36,2.12-.55a6.12,6.12,0,0,0-1.35-.88c-.59-.37-1.2-.7-1.79-1.07a1,1,0,0,1-.36-1.43,1,1,0,0,1,1.39-.34c.87.49,1.72,1,2.58,1.51l.66.37c-.22-.9-.41-1.68-.61-2.45a1,1,0,0,1,.3-1,.93.93,0,0,1,1-.16,1,1,0,0,1,.63.83c.32,1.27.65,2.53,1,3.79a.78.78,0,0,0,.33.55L24,23.2V22.09c0-1.3,0-2.61,0-3.91a1.05,1.05,0,0,0-.34-.81c-.8-.78-1.59-1.57-2.38-2.37-.13-.14-.35-.23-.34-.47m2,.57a.34.34,0,0,0-.33-.37.32.32,0,0,0-.35.34.33.33,0,0,0,.33.36C22.8,15.46,22.9,15.31,22.92,15.1Z" transform="translate(-11.26 -9.34)"/><path class="a47a6e67-1b5f-46a0-b955-77d99b59a6d6" d="M12.79,21.81a1.18,1.18,0,0,0,1.23.28c1.19-.34,2.4-.61,3.6-.94a1.23,1.23,0,0,1,1,.13c1.31.79,2.63,1.56,3.94,2.34.57.33.33.83.25,1.29-1.34-.78-2.69-1.54-4-2.35a1.57,1.57,0,0,0-1.42-.19c-1.15.34-2.32.61-3.49.9A1,1,0,0,1,12.79,23,.92.92,0,0,1,12.79,21.81Z" transform="translate(-11.26 -9.34)"/><path class="a47a6e67-1b5f-46a0-b955-77d99b59a6d6" d="M27.15,24.91c-.22-.91-.18-1,.57-1.48,1.18-.71,2.38-1.4,3.56-2.12a1.33,1.33,0,0,1,1.1-.16c1.2.33,2.41.6,3.6.94a1.18,1.18,0,0,0,1.23-.28.92.92,0,0,1,0,1.14,1,1,0,0,1-1.15.32c-1.19-.29-2.37-.58-3.54-.92a1.48,1.48,0,0,0-1.31.18C29.87,23.35,28.51,24.12,27.15,24.91Z" transform="translate(-11.26 -9.34)"/><path class="b0429835-e844-471b-9bdd-43c9d7baadea" d="M26,26.89c0-.38-.22-.87.09-1.08s.59.25.88.42c1.07.62,2.13,1.26,3.21,1.88a1.31,1.31,0,0,1,.69.92c.27,1.19.6,2.36.91,3.54s1,1.29,1.82.58a1.24,1.24,0,0,1,.14.82,1,1,0,0,1-1.93,0c-.32-1.26-.66-2.51-1-3.77a1.19,1.19,0,0,0-.63-.83C28.84,28.54,27.49,27.61,26,26.89Z" transform="translate(-11.26 -9.34)"/><path class="b0429835-e844-471b-9bdd-43c9d7baadea" d="M16.36,33.15c.87.71,1.54.5,1.82-.58s.64-2.43.94-3.66a1.06,1.06,0,0,1,.57-.73c1.28-.75,2.56-1.5,3.82-2.27.37-.22.52-.19.49.26,0,.24,0,.48,0,.72-1.56.78-3,1.77-4.53,2.62-.23.13-.24.37-.3.58-.31,1.22-.62,2.44-.94,3.65-.21.79-.67,1.13-1.28.95S16.08,33.94,16.36,33.15Z" transform="translate(-11.26 -9.34)"/><path class="f12780a1-71f7-4bf1-98e1-d4685c39b6b2" d="M20.69,35.63c.67.5,1,.5,1.6-.06s1-1,1.59-1.64A2.34,2.34,0,0,1,24,35.14a23.28,23.28,0,0,0-1.76,1.68,1,1,0,0,1-1.33.15A.92.92,0,0,1,20.69,35.63Z" transform="translate(-11.26 -9.34)"/><path class="f12780a1-71f7-4bf1-98e1-d4685c39b6b2" d="M26.05,35.14a4.3,4.3,0,0,1,0-1.09c.4.11.56.41.79.62s.6.61.91.9c.59.55.93.56,1.6.06A.93.93,0,0,1,29.14,37a1,1,0,0,1-1.33-.15A23.28,23.28,0,0,0,26.05,35.14Z" transform="translate(-11.26 -9.34)"/><path class="a47a6e67-1b5f-46a0-b955-77d99b59a6d6" d="M24,38c.61,1,1.39,1,2,0a2.08,2.08,0,0,1,0,1.08,1,1,0,0,1-2,0A2.08,2.08,0,0,1,24,38Z" transform="translate(-11.26 -9.34)"/><path class="bc9ff3ab-e2ef-44f9-8a39-8d431590809b" d="M22.92,15.1c0,.21-.12.36-.35.33a.33.33,0,0,1-.33-.36.32.32,0,0,1,.35-.34A.34.34,0,0,1,22.92,15.1Z" transform="translate(-11.26 -9.34)"/><ellipse class="bc9ff3ab-e2ef-44f9-8a39-8d431590809b" cx="10.25" cy="4.55" rx="0.53" ry="0.56"/></svg>